<?xml version="1.0" encoding="iso-8859-1"?>
<!-- Generator: Adobe Illustrator 19.0.0, SVG Export Plug-In . SVG Version: 6.00 Build 0)  -->
<svg version="1.1" id="Layer_1" xmlns="http://www.w3.org/2000/svg" xmlns:xlink="http://www.w3.org/1999/xlink" x="0px" y="0px"
	 viewBox="0 0 512 512" style="enable-background:new 0 0 512 512;" xml:space="preserve">
<path style="fill:#AEB5CA;" d="M317.793,353.103H194.207v-18.464c0-5.228-1.548-10.339-4.448-14.69l-13.207-19.811h158.897
	l-13.207,19.811c-2.9,4.35-4.448,9.462-4.448,14.69V353.103z"/>
<path style="fill:#C7CFE2;" d="M494.345,308.966H17.655C7.904,308.966,0,301.062,0,291.31V17.655C0,7.904,7.904,0,17.655,0h476.69
	C504.096,0,512,7.904,512,17.655V291.31C512,301.062,504.096,308.966,494.345,308.966z"/>
<path style="fill:#464655;" d="M485.517,273.655H26.483c-4.875,0-8.828-3.953-8.828-8.828V26.483c0-4.875,3.953-8.828,8.828-8.828
	h459.034c4.875,0,8.828,3.953,8.828,8.828v238.345C494.345,269.703,490.392,273.655,485.517,273.655z"/>
<path style="fill:#D7DEED;" d="M277.027,291.31h-42.054c-3.343,0-6.4,1.889-7.895,4.879l-6.389,12.776h70.621l-6.388-12.776
	C283.427,293.199,280.371,291.31,277.027,291.31z"/>
<path style="fill:#C7CFE2;" d="M361.931,361.931H150.069c-4.875,0-8.828-3.953-8.828-8.828l0,0c0-4.875,3.953-8.828,8.828-8.828
	h211.862c4.875,0,8.828,3.953,8.828,8.828l0,0C370.759,357.978,366.806,361.931,361.931,361.931z"/>
<path style="fill:#707487;" d="M379.586,512H17.655C7.904,512,0,504.096,0,494.345v-97.103c0-9.751,7.904-17.655,17.655-17.655
	h361.931c9.751,0,17.655,7.904,17.655,17.655v97.103C397.241,504.096,389.337,512,379.586,512z"/>
<g>
	<path style="fill:#5B5D6E;" d="M26.483,441.379L26.483,441.379c-4.875,0-8.828-3.953-8.828-8.828l0,0
		c0-4.875,3.953-8.828,8.828-8.828l0,0c4.875,0,8.828,3.953,8.828,8.828l0,0C35.31,437.427,31.358,441.379,26.483,441.379z"/>
	<path style="fill:#5B5D6E;" d="M52.966,441.379L52.966,441.379c-4.875,0-8.828-3.953-8.828-8.828l0,0
		c0-4.875,3.953-8.828,8.828-8.828l0,0c4.875,0,8.828,3.953,8.828,8.828l0,0C61.793,437.427,57.841,441.379,52.966,441.379z"/>
	<path style="fill:#5B5D6E;" d="M79.448,467.862L79.448,467.862c-4.875,0-8.828-3.953-8.828-8.828l0,0
		c0-4.875,3.953-8.828,8.828-8.828l0,0c4.875,0,8.828,3.953,8.828,8.828l0,0C88.276,463.91,84.323,467.862,79.448,467.862z"/>
	<path style="fill:#5B5D6E;" d="M105.931,467.862L105.931,467.862c-4.875,0-8.828-3.953-8.828-8.828l0,0
		c0-4.875,3.953-8.828,8.828-8.828l0,0c4.875,0,8.828,3.953,8.828,8.828l0,0C114.759,463.91,110.806,467.862,105.931,467.862z"/>
	<path style="fill:#5B5D6E;" d="M79.448,441.379L79.448,441.379c-4.875,0-8.828-3.953-8.828-8.828l0,0
		c0-4.875,3.953-8.828,8.828-8.828l0,0c4.875,0,8.828,3.953,8.828,8.828l0,0C88.276,437.427,84.323,441.379,79.448,441.379z"/>
	<path style="fill:#5B5D6E;" d="M105.931,441.379L105.931,441.379c-4.875,0-8.828-3.953-8.828-8.828l0,0
		c0-4.875,3.953-8.828,8.828-8.828l0,0c4.875,0,8.828,3.953,8.828,8.828l0,0C114.759,437.427,110.806,441.379,105.931,441.379z"/>
	<path style="fill:#5B5D6E;" d="M132.414,467.862L132.414,467.862c-4.875,0-8.828-3.953-8.828-8.828l0,0
		c0-4.875,3.953-8.828,8.828-8.828l0,0c4.875,0,8.828,3.953,8.828,8.828l0,0C141.241,463.91,137.289,467.862,132.414,467.862z"/>
	<path style="fill:#5B5D6E;" d="M158.897,467.862L158.897,467.862c-4.875,0-8.828-3.953-8.828-8.828l0,0
		c0-4.875,3.953-8.828,8.828-8.828l0,0c4.875,0,8.828,3.953,8.828,8.828l0,0C167.724,463.91,163.772,467.862,158.897,467.862z"/>
	<path style="fill:#5B5D6E;" d="M132.414,441.379L132.414,441.379c-4.875,0-8.828-3.953-8.828-8.828l0,0
		c0-4.875,3.953-8.828,8.828-8.828l0,0c4.875,0,8.828,3.953,8.828,8.828l0,0C141.241,437.427,137.289,441.379,132.414,441.379z"/>
	<path style="fill:#5B5D6E;" d="M158.897,441.379L158.897,441.379c-4.875,0-8.828-3.953-8.828-8.828l0,0
		c0-4.875,3.953-8.828,8.828-8.828l0,0c4.875,0,8.828,3.953,8.828,8.828l0,0C167.724,437.427,163.772,441.379,158.897,441.379z"/>
	<path style="fill:#5B5D6E;" d="M185.379,467.862L185.379,467.862c-4.875,0-8.828-3.953-8.828-8.828l0,0
		c0-4.875,3.953-8.828,8.828-8.828l0,0c4.875,0,8.828,3.953,8.828,8.828l0,0C194.207,463.91,190.254,467.862,185.379,467.862z"/>
	<path style="fill:#5B5D6E;" d="M211.862,467.862L211.862,467.862c-4.875,0-8.828-3.953-8.828-8.828l0,0
		c0-4.875,3.953-8.828,8.828-8.828l0,0c4.875,0,8.828,3.953,8.828,8.828l0,0C220.69,463.91,216.737,467.862,211.862,467.862z"/>
	<path style="fill:#5B5D6E;" d="M185.379,441.379L185.379,441.379c-4.875,0-8.828-3.953-8.828-8.828l0,0
		c0-4.875,3.953-8.828,8.828-8.828l0,0c4.875,0,8.828,3.953,8.828,8.828l0,0C194.207,437.427,190.254,441.379,185.379,441.379z"/>
	<path style="fill:#5B5D6E;" d="M211.862,441.379L211.862,441.379c-4.875,0-8.828-3.953-8.828-8.828l0,0
		c0-4.875,3.953-8.828,8.828-8.828l0,0c4.875,0,8.828,3.953,8.828,8.828l0,0C220.69,437.427,216.737,441.379,211.862,441.379z"/>
	<path style="fill:#5B5D6E;" d="M238.345,467.862L238.345,467.862c-4.875,0-8.828-3.953-8.828-8.828l0,0
		c0-4.875,3.953-8.828,8.828-8.828l0,0c4.875,0,8.828,3.953,8.828,8.828l0,0C247.172,463.91,243.22,467.862,238.345,467.862z"/>
	<path style="fill:#5B5D6E;" d="M264.828,467.862L264.828,467.862c-4.875,0-8.828-3.953-8.828-8.828l0,0
		c0-4.875,3.953-8.828,8.828-8.828l0,0c4.875,0,8.828,3.953,8.828,8.828l0,0C273.655,463.91,269.703,467.862,264.828,467.862z"/>
	<path style="fill:#5B5D6E;" d="M238.345,441.379L238.345,441.379c-4.875,0-8.828-3.953-8.828-8.828l0,0
		c0-4.875,3.953-8.828,8.828-8.828l0,0c4.875,0,8.828,3.953,8.828,8.828l0,0C247.172,437.427,243.22,441.379,238.345,441.379z"/>
	<path style="fill:#5B5D6E;" d="M264.828,441.379L264.828,441.379c-4.875,0-8.828-3.953-8.828-8.828l0,0
		c0-4.875,3.953-8.828,8.828-8.828l0,0c4.875,0,8.828,3.953,8.828,8.828l0,0C273.655,437.427,269.703,441.379,264.828,441.379z"/>
	<path style="fill:#5B5D6E;" d="M291.31,467.862L291.31,467.862c-4.875,0-8.828-3.953-8.828-8.828l0,0
		c0-4.875,3.953-8.828,8.828-8.828l0,0c4.875,0,8.828,3.953,8.828,8.828l0,0C300.138,463.91,296.185,467.862,291.31,467.862z"/>
	<path style="fill:#5B5D6E;" d="M317.793,467.862L317.793,467.862c-4.875,0-8.828-3.953-8.828-8.828l0,0
		c0-4.875,3.953-8.828,8.828-8.828l0,0c4.875,0,8.828,3.953,8.828,8.828l0,0C326.621,463.91,322.668,467.862,317.793,467.862z"/>
	<path style="fill:#5B5D6E;" d="M291.31,441.379L291.31,441.379c-4.875,0-8.828-3.953-8.828-8.828l0,0
		c0-4.875,3.953-8.828,8.828-8.828l0,0c4.875,0,8.828,3.953,8.828,8.828l0,0C300.138,437.427,296.185,441.379,291.31,441.379z"/>
	<path style="fill:#5B5D6E;" d="M317.793,441.379L317.793,441.379c-4.875,0-8.828-3.953-8.828-8.828l0,0
		c0-4.875,3.953-8.828,8.828-8.828l0,0c4.875,0,8.828,3.953,8.828,8.828l0,0C326.621,437.427,322.668,441.379,317.793,441.379z"/>
	<path style="fill:#5B5D6E;" d="M26.483,494.345L26.483,494.345c-4.875,0-8.828-3.953-8.828-8.828l0,0
		c0-4.875,3.953-8.828,8.828-8.828l0,0c4.875,0,8.828,3.953,8.828,8.828l0,0C35.31,490.392,31.358,494.345,26.483,494.345z"/>
	<path style="fill:#5B5D6E;" d="M52.966,494.345L52.966,494.345c-4.875,0-8.828-3.953-8.828-8.828l0,0
		c0-4.875,3.953-8.828,8.828-8.828l0,0c4.875,0,8.828,3.953,8.828,8.828l0,0C61.793,490.392,57.841,494.345,52.966,494.345z"/>
	<path style="fill:#5B5D6E;" d="M344.276,494.345L344.276,494.345c-4.875,0-8.828-3.953-8.828-8.828l0,0
		c0-4.875,3.953-8.828,8.828-8.828l0,0c4.875,0,8.828,3.953,8.828,8.828l0,0C353.103,490.392,349.151,494.345,344.276,494.345z"/>
	<path style="fill:#5B5D6E;" d="M370.759,494.345L370.759,494.345c-4.875,0-8.828-3.953-8.828-8.828l0,0
		c0-4.875,3.953-8.828,8.828-8.828l0,0c4.875,0,8.828,3.953,8.828,8.828l0,0C379.586,490.392,375.634,494.345,370.759,494.345z"/>
	<path style="fill:#5B5D6E;" d="M344.276,441.379L344.276,441.379c-4.875,0-8.828-3.953-8.828-8.828l0,0
		c0-4.875,3.953-8.828,8.828-8.828l0,0c4.875,0,8.828,3.953,8.828,8.828l0,0C353.103,437.427,349.151,441.379,344.276,441.379z"/>
	<path style="fill:#5B5D6E;" d="M370.759,441.379L370.759,441.379c-4.875,0-8.828-3.953-8.828-8.828l0,0
		c0-4.875,3.953-8.828,8.828-8.828l0,0c4.875,0,8.828,3.953,8.828,8.828l0,0C379.586,437.427,375.634,441.379,370.759,441.379z"/>
	<path style="fill:#5B5D6E;" d="M26.483,414.897L26.483,414.897c-4.875,0-8.828-3.953-8.828-8.828l0,0
		c0-4.875,3.953-8.828,8.828-8.828l0,0c4.875,0,8.828,3.953,8.828,8.828l0,0C35.31,410.944,31.358,414.897,26.483,414.897z"/>
	<path style="fill:#5B5D6E;" d="M52.966,414.897L52.966,414.897c-4.875,0-8.828-3.953-8.828-8.828l0,0
		c0-4.875,3.953-8.828,8.828-8.828l0,0c4.875,0,8.828,3.953,8.828,8.828l0,0C61.793,410.944,57.841,414.897,52.966,414.897z"/>
	<path style="fill:#5B5D6E;" d="M79.448,414.897L79.448,414.897c-4.875,0-8.828-3.953-8.828-8.828l0,0
		c0-4.875,3.953-8.828,8.828-8.828l0,0c4.875,0,8.828,3.953,8.828,8.828l0,0C88.276,410.944,84.323,414.897,79.448,414.897z"/>
	<path style="fill:#5B5D6E;" d="M105.931,414.897L105.931,414.897c-4.875,0-8.828-3.953-8.828-8.828l0,0
		c0-4.875,3.953-8.828,8.828-8.828l0,0c4.875,0,8.828,3.953,8.828,8.828l0,0C114.759,410.944,110.806,414.897,105.931,414.897z"/>
	<path style="fill:#5B5D6E;" d="M132.414,414.897L132.414,414.897c-4.875,0-8.828-3.953-8.828-8.828l0,0
		c0-4.875,3.953-8.828,8.828-8.828l0,0c4.875,0,8.828,3.953,8.828,8.828l0,0C141.241,410.944,137.289,414.897,132.414,414.897z"/>
	<path style="fill:#5B5D6E;" d="M158.897,414.897L158.897,414.897c-4.875,0-8.828-3.953-8.828-8.828l0,0
		c0-4.875,3.953-8.828,8.828-8.828l0,0c4.875,0,8.828,3.953,8.828,8.828l0,0C167.724,410.944,163.772,414.897,158.897,414.897z"/>
	<path style="fill:#5B5D6E;" d="M185.379,414.897L185.379,414.897c-4.875,0-8.828-3.953-8.828-8.828l0,0
		c0-4.875,3.953-8.828,8.828-8.828l0,0c4.875,0,8.828,3.953,8.828,8.828l0,0C194.207,410.944,190.254,414.897,185.379,414.897z"/>
	<path style="fill:#5B5D6E;" d="M211.862,414.897L211.862,414.897c-4.875,0-8.828-3.953-8.828-8.828l0,0
		c0-4.875,3.953-8.828,8.828-8.828l0,0c4.875,0,8.828,3.953,8.828,8.828l0,0C220.69,410.944,216.737,414.897,211.862,414.897z"/>
	<path style="fill:#5B5D6E;" d="M238.345,414.897L238.345,414.897c-4.875,0-8.828-3.953-8.828-8.828l0,0
		c0-4.875,3.953-8.828,8.828-8.828l0,0c4.875,0,8.828,3.953,8.828,8.828l0,0C247.172,410.944,243.22,414.897,238.345,414.897z"/>
	<path style="fill:#5B5D6E;" d="M264.828,414.897L264.828,414.897c-4.875,0-8.828-3.953-8.828-8.828l0,0
		c0-4.875,3.953-8.828,8.828-8.828l0,0c4.875,0,8.828,3.953,8.828,8.828l0,0C273.655,410.944,269.703,414.897,264.828,414.897z"/>
	<path style="fill:#5B5D6E;" d="M291.31,414.897L291.31,414.897c-4.875,0-8.828-3.953-8.828-8.828l0,0
		c0-4.875,3.953-8.828,8.828-8.828l0,0c4.875,0,8.828,3.953,8.828,8.828l0,0C300.138,410.944,296.185,414.897,291.31,414.897z"/>
	<path style="fill:#5B5D6E;" d="M317.793,414.897L317.793,414.897c-4.875,0-8.828-3.953-8.828-8.828l0,0
		c0-4.875,3.953-8.828,8.828-8.828l0,0c4.875,0,8.828,3.953,8.828,8.828l0,0C326.621,410.944,322.668,414.897,317.793,414.897z"/>
	<path style="fill:#5B5D6E;" d="M344.276,414.897L344.276,414.897c-4.875,0-8.828-3.953-8.828-8.828l0,0
		c0-4.875,3.953-8.828,8.828-8.828l0,0c4.875,0,8.828,3.953,8.828,8.828l0,0C353.103,410.944,349.151,414.897,344.276,414.897z"/>
	<path style="fill:#5B5D6E;" d="M370.759,414.897L370.759,414.897c-4.875,0-8.828-3.953-8.828-8.828l0,0
		c0-4.875,3.953-8.828,8.828-8.828l0,0c4.875,0,8.828,3.953,8.828,8.828l0,0C379.586,410.944,375.634,414.897,370.759,414.897z"/>
	<path style="fill:#5B5D6E;" d="M264.828,494.345H132.414c-4.875,0-8.828-3.953-8.828-8.828l0,0c0-4.875,3.953-8.828,8.828-8.828
		h132.414c4.875,0,8.828,3.953,8.828,8.828l0,0C273.655,490.392,269.703,494.345,264.828,494.345z"/>
	<path style="fill:#5B5D6E;" d="M105.931,494.345H79.448c-4.875,0-8.828-3.953-8.828-8.828l0,0c0-4.875,3.953-8.828,8.828-8.828
		h26.483c4.875,0,8.828,3.953,8.828,8.828l0,0C114.759,490.392,110.806,494.345,105.931,494.345z"/>
	<path style="fill:#5B5D6E;" d="M317.793,494.345H291.31c-4.875,0-8.828-3.953-8.828-8.828l0,0c0-4.875,3.953-8.828,8.828-8.828
		h26.483c4.875,0,8.828,3.953,8.828,8.828l0,0C326.621,490.392,322.668,494.345,317.793,494.345z"/>
	<path style="fill:#5B5D6E;" d="M52.966,467.862H26.483c-4.875,0-8.828-3.953-8.828-8.828l0,0c0-4.875,3.953-8.828,8.828-8.828
		h26.483c4.875,0,8.828,3.953,8.828,8.828l0,0C61.793,463.91,57.841,467.862,52.966,467.862z"/>
	<path style="fill:#5B5D6E;" d="M370.759,467.862h-26.483c-4.875,0-8.828-3.953-8.828-8.828l0,0c0-4.875,3.953-8.828,8.828-8.828
		h26.483c4.875,0,8.828,3.953,8.828,8.828l0,0C379.586,463.91,375.634,467.862,370.759,467.862z"/>
	<path style="fill:#5B5D6E;" d="M467.862,512L467.862,512C492.238,512,512,492.238,512,467.862v-61.793
		c0-24.376-19.762-44.138-44.138-44.138l0,0c-24.376,0-44.138,19.762-44.138,44.138v61.793C423.724,492.238,443.486,512,467.862,512
		z"/>
</g>
<path style="fill:#464655;" d="M463.527,362.138c-22.95,2.188-39.803,22.775-39.803,45.827v15.758h13.597
	c6.107,0,12.09,2.978,14.985,8.355c2.979,5.536,8.829,9.3,15.556,9.3c6.728,0,12.577-3.764,15.556-9.3
	c2.894-5.377,8.878-8.355,14.985-8.355H512v-17.655C512,380.262,489.852,359.628,463.527,362.138z"/>
<path style="fill:#5B5D6E;" d="M467.862,414.897L467.862,414.897c-4.855,0-8.828-3.972-8.828-8.828v-8.828
	c0-4.855,3.972-8.828,8.828-8.828l0,0c4.855,0,8.828,3.972,8.828,8.828v8.828C476.69,410.924,472.717,414.897,467.862,414.897z"/>
<g>
</g>
<g>
</g>
<g>
</g>
<g>
</g>
<g>
</g>
<g>
</g>
<g>
</g>
<g>
</g>
<g>
</g>
<g>
</g>
<g>
</g>
<g>
</g>
<g>
</g>
<g>
</g>
<g>
</g>
</svg>
